<svg width="100" height="38" viewBox="0 0 100 38" fill="none" xmlns="http://www.w3.org/2000/svg">
<g clip-path="url(#clip0_203_24232)">
<circle cx="2.5" cy="2.5" r="2.5" fill="#EB1F24"/>
<circle cx="13.5" cy="2.5" r="2.5" fill="#EB1F24"/>
<circle cx="24.5" cy="2.5" r="2.5" fill="#EB1F24"/>
<circle cx="35.5" cy="2.5" r="2.5" fill="#EB1F24"/>
<circle cx="46.5" cy="2.5" r="2.5" fill="#EB1F24"/>
<circle cx="57.5" cy="2.5" r="2.5" fill="#EB1F24"/>
<circle cx="68.5" cy="2.5" r="2.5" fill="#EB1F24"/>
<circle cx="79.5" cy="2.5" r="2.5" fill="#EB1F24"/>
<circle cx="90.5" cy="2.5" r="2.5" fill="#EB1F24"/>
<circle cx="2.5" cy="13.5" r="2.5" fill="#EB1F24"/>
<circle cx="13.5" cy="13.5" r="2.5" fill="#EB1F24"/>
<circle cx="24.5" cy="13.5" r="2.5" fill="#EB1F24"/>
<circle cx="35.5" cy="13.5" r="2.5" fill="#EB1F24"/>
<circle cx="46.5" cy="13.5" r="2.5" fill="#EB1F24"/>
<circle cx="57.5" cy="13.5" r="2.5" fill="#EB1F24"/>
<circle cx="68.5" cy="13.5" r="2.5" fill="#EB1F24"/>
<circle cx="79.5" cy="13.5" r="2.5" fill="#EB1F24"/>
<circle cx="90.5" cy="13.5" r="2.5" fill="#EB1F24"/>
<circle cx="2.5" cy="24.5" r="2.5" fill="#EB1F24"/>
<circle cx="13.5" cy="24.5" r="2.5" fill="#EB1F24"/>
<circle cx="24.5" cy="24.5" r="2.5" fill="#EB1F24"/>
<circle cx="35.5" cy="24.5" r="2.5" fill="#EB1F24"/>
<circle cx="46.5" cy="24.5" r="2.5" fill="#EB1F24"/>
<circle cx="57.5" cy="24.5" r="2.5" fill="#EB1F24"/>
<circle cx="68.5" cy="24.5" r="2.5" fill="#EB1F24"/>
<circle cx="79.5" cy="24.5" r="2.5" fill="#EB1F24"/>
<circle cx="90.5" cy="24.5" r="2.5" fill="#EB1F24"/>
<circle cx="2.5" cy="35.5" r="2.5" fill="#EB1F24"/>
<circle cx="13.5" cy="35.5" r="2.5" fill="#EB1F24"/>
<circle cx="24.5" cy="35.5" r="2.5" fill="#EB1F24"/>
<circle cx="35.5" cy="35.5" r="2.5" fill="#EB1F24"/>
<circle cx="46.5" cy="35.5" r="2.5" fill="#EB1F24"/>
<circle cx="57.5" cy="35.5" r="2.5" fill="#EB1F24"/>
<circle cx="68.5" cy="35.5" r="2.5" fill="#EB1F24"/>
<circle cx="79.5" cy="35.5" r="2.5" fill="#EB1F24"/>
<circle cx="90.5" cy="35.5" r="2.5" fill="#EB1F24"/>
</g>
<defs>
<clipPath id="clip0_203_24232">
<rect width="100" height="38" fill="white"/>
</clipPath>
</defs>
</svg>
